:SAMPLES-PER-SECOND 30
:FULLY-SPECIFIED
:DEGREES
334
root  34.84409362 36.5212478 -14.72324612 8.449279785 -3.731739044 3.502137423
lowerback  -8.288990021 -0.1803689897 -0.4064488411
upperback  -3.309200048 0.2094690055 -3.320960045
thorax  1.23477006 0.2420549989 -3.180799961
lowerneck  -13.85219955 1.149719954 1.472550035
upperneck  15.39830017 0.6144000292 5.519279957
head  6.990719795 1.015100002 1.626199841
lclavicle  0 -4.497500157e-015 -2.743230041e-014
lhumerus  -45.99060059 27.55270004 66.9733963
lradius  0.004719055258 -6.507048965e-006 30.51679993
lwrist  4.824992743e-007 -3.790274832e-007 -26.71349907
lhand  -4.405151386e-031 -36.71780014 -10.72480011
lfingers  90 7.125020027 -90
lthumb  94.74111642 -25.56621247 100.8786579
rclavicle  0 -4.497500157e-015 -2.743230041e-014
rhumerus  -50.70460129 -27.2458992 -58.69839859
rradius  -5.16745672e-007 2.214343908e-008 56.5780983
rwrist  -7.499573258e-005 0.03438235447 -163.5390015
rhand  -1.775042532e-031 5.924220085 -7.610159874
rfingers  -90 -7.125020027 -90
rthumb  -84.75395879 -8.568310363 -58.35563334
rfemur  -11.52731037 15.83659554 13.1461134
rtibia  -0.9461888075 -0.6405217052 20.28676033
rfoot  0.3402211666 -21.29988861 -36.806633
rtoes  4.045141677 19.60307522 -101.9028109
lfemur  -7.137499809 -17.20382309 -20.59128952
ltibia  3.17821002 -0.5354478359 13.65552616
lfoot  0.7690836787 -23.91825485 36.92918777
ltoes  -8.50423118 -18.16926565 -115.6186548
335
root  34.84284108 36.52093542 -14.72261534 8.42643261 -3.693861008 3.513275862
lowerback  -8.328359604 -0.1733799726 -0.3951213658
upperback  -3.31137991 0.2190240026 -3.312289953
thorax  1.25474 0.2470840067 -3.177380085
lowerneck  -13.90559959 1.140799999 1.471549988
upperneck  15.45009995 0.6019070148 5.497469902
head  7.017129898 1.009009957 1.619449854
lclavicle  0 -4.497500157e-015 -2.743230041e-014
lhumerus  -45.93769836 27.50189972 67.04859924
lradius  0.004719055258 -6.507048965e-006 30.48609924
lwrist  4.824992743e-007 -3.790274832e-007 -26.76399994
lhand  -4.406941955e-031 -36.74900055 -10.71310043
lfingers  90 7.125020027 -90
lthumb  94.75329061 -25.55360982 100.9109449
rclavicle  0 -4.497500157e-015 -2.743230041e-014
rhumerus  -50.34960175 -27.89889908 -58.62549973
rradius  -5.16745672e-007 2.214343908e-008 54.74599838
rwrist  -7.499573258e-005 0.03438235447 -162.2449951
rhand  -3.550262549e-031 5.951759815 -7.67261982
rfingers  -90 -7.125020027 -90
rthumb  -84.78048671 -8.517052038 -58.33367559
rfemur  -11.50232792 15.83244896 13.15443134
rtibia  -0.9539862871 -0.6261312366 20.30583382
rfoot  0.3320932984 -21.27975845 -36.82417297
rtoes  4.064074663 19.59930653 -101.9592479
lfemur  -7.061068058 -17.2443943 -20.63238716
ltibia  3.222845554 -0.5488893986 13.57481956
lfoot  0.7532846332 -23.85321426 36.92314148
ltoes  -8.513935239 -18.16484124 -115.6497786
336
root  34.84269991 36.52090538 -14.7222564 8.410161972 -3.684550524 3.502450943
lowerback  -8.374569893 -0.1543360204 -0.3937494159
upperback  -3.310580015 0.2463610023 -3.314340115
thorax  1.28252995 0.2612839937 -3.17779994
lowerneck  -13.93929958 1.111340046 1.434700012
upperneck  15.48499966 0.5663089752 5.498579979
head  7.034830093 0.9911469817 1.623219848
lclavicle  0 -4.497500157e-015 -2.743230041e-014
lhumerus  -45.88180161 27.46190071 67.12039948
lradius  0.004719055258 -6.507048965e-006 30.46279716
lwrist  4.824992743e-007 -3.790274832e-007 -26.82439804
lhand  -4.405300586e-031 -36.72040176 -10.72439957
lfingers  90 7.125020027 -90
lthumb  94.74225044 -25.56571091 100.8814038
rclavicle  0 -4.497500157e-015 -2.743230041e-014
rhumerus  -50.02939987 -28.54780006 -58.51539993
rradius  -5.16745672e-007 2.214343908e-008 52.82149887
rwrist  -7.499573258e-005 0.03438235447 -161.3789978
rhand  -1.775242907e-031 5.986219883 -7.881830215
rfingers  -90 -7.125020027 -90
rthumb  -84.88329923 -8.341505645 -58.31643225
rfemur  -11.46221352 15.79807281 13.16401577
rtibia  -0.9416365623 -0.6453106403 20.26535225
rfoot  0.3442007899 -21.32294846 -36.8136673
rtoes  4.099939364 19.59211694 -102.066185
lfemur  -7.052587509 -17.23300934 -20.61663055
ltibia  3.212371588 -0.524418056 13.59105682
lfoot  0.7626649141 -23.92089081 36.92684555
ltoes  -8.506763157 -18.16811184 -115.6267749
337
root  34.84823272 36.52542895 -14.72192299 8.509799957 -3.659012318 3.501007318
lowerback  -8.33716011 -0.1297678798 -0.4168457985
upperback  -3.271519899 0.2763159871 -3.306679964
thorax  1.303789973 0.2747739851 -3.153870106
lowerneck  -13.97049999 1.072929978 1.383520007
upperneck  15.52190018 0.5213739872 5.500450134
head  7.052919865 0.9680489898 1.62864995
lclavicle  0 -4.497500157e-015 -2.743230041e-014
lhumerus  -45.78730011 27.36269951 67.23480225
lradius  0.004719055258 -6.507048965e-006 30.41670036
lwrist  4.824992743e-007 -3.790274832e-007 -26.8022995
lhand  -4.405300586e-031 -36.72040176 -10.72439957
lfingers  90 7.125020027 -90
lthumb  94.74225044 -25.56571091 100.8814038
rclavicle  0 -4.497500157e-015 -2.743230041e-014
rhumerus  -49.77420044 -29.25250053 -58.3404007
rradius  -5.16745672e-007 2.214343908e-008 51.04899979
rwrist  -7.499573258e-005 0.03438235447 -160.0690002
rhand  -1.775242907e-031 5.986219883 -7.881830215
rfingers  -90 -7.125020027 -90
rthumb  -84.88329923 -8.341505645 -58.31643225
rfemur  -11.60135746 15.86237907 13.13193417
rtibia  -0.9559010863 -0.6373310685 20.30231476
rfoot  0.3240204155 -21.2623291 -36.88117599
rtoes  4.099939364 19.59211694 -102.066185
lfemur  -7.269157887 -17.2263279 -20.53958893
ltibia  3.126422644 -0.5082532167 13.73776817
lfoot  0.762103796 -24.00519371 36.87083817
ltoes  -8.506763157 -18.16811184 -115.6267749
